<svg width="32" height="32" viewBox="0 0 32 32" fill="none" xmlns="http://www.w3.org/2000/svg">
<path d="M12.5254 25.8295L13.3047 27.582C13.5363 28.1037 13.9144 28.547 14.393 28.8581C14.8716 29.1692 15.4302 29.3347 16.001 29.3346C16.5718 29.3347 17.1304 29.1692 17.609 28.8581C18.0876 28.547 18.4656 28.1037 18.6973 27.582L19.4765 25.8295C19.7539 25.2076 20.2205 24.6891 20.8099 24.348C21.4029 24.0059 22.089 23.8602 22.7699 23.9317L24.6765 24.1346C25.2441 24.1947 25.8169 24.0888 26.3254 23.8297C26.834 23.5707 27.2565 23.1697 27.5417 22.6754C27.8273 22.1813 27.9633 21.615 27.9334 21.0451C27.9034 20.4753 27.7087 19.9264 27.3728 19.465L26.2439 17.9139C25.842 17.3575 25.6272 16.6877 25.6306 16.0013C25.6305 15.3168 25.8473 14.6498 26.2499 14.0961L27.3788 12.545C27.7146 12.0836 27.9093 11.5347 27.9393 10.9649C27.9693 10.395 27.8332 9.82869 27.5476 9.33464C27.2624 8.84028 26.8399 8.43929 26.3314 8.18027C25.8228 7.92126 25.25 7.81534 24.6825 7.87538L22.7758 8.07834C22.0949 8.14985 21.4088 8.00413 20.8158 7.66204C20.2253 7.31897 19.7586 6.79778 19.4825 6.17315L18.6973 4.42056C18.4656 3.89886 18.0876 3.45559 17.609 3.1445C17.1304 2.83341 16.5718 2.66788 16.001 2.66797C15.4302 2.66788 14.8716 2.83341 14.393 3.1445C13.9144 3.45559 13.5363 3.89886 13.3047 4.42056L12.5254 6.17315C12.2493 6.79778 11.7826 7.31897 11.1921 7.66204C10.599 8.00413 9.91298 8.14985 9.23209 8.07834L7.31949 7.87538C6.75193 7.81534 6.17915 7.92126 5.67058 8.18027C5.16202 8.43929 4.73952 8.84028 4.45431 9.33464C4.16874 9.82869 4.03269 10.395 4.06267 10.9649C4.09264 11.5347 4.28736 12.0836 4.6232 12.545L5.75209 14.0961C6.15468 14.6498 6.37147 15.3168 6.37135 16.0013C6.37147 16.6859 6.15468 17.3528 5.75209 17.9065L4.6232 19.4576C4.28736 19.919 4.09264 20.4679 4.06267 21.0377C4.03269 21.6076 4.16874 22.1739 4.45431 22.668C4.7398 23.1621 5.16235 23.5628 5.67084 23.8218C6.17933 24.0808 6.75198 24.1869 7.31949 24.1272L9.22616 23.9243C9.90705 23.8528 10.5931 23.9985 11.1862 24.3406C11.7789 24.6827 12.2478 25.204 12.5254 25.8295Z" stroke="#232A95" stroke-width="2" stroke-linecap="round" stroke-linejoin="round"/>
<path d="M15.9986 20.0013C18.2077 20.0013 19.9986 18.2104 19.9986 16.0013C19.9986 13.7922 18.2077 12.0013 15.9986 12.0013C13.7895 12.0013 11.9986 13.7922 11.9986 16.0013C11.9986 18.2104 13.7895 20.0013 15.9986 20.0013Z" stroke="#232A95" stroke-width="2" stroke-linecap="round" stroke-linejoin="round"/>
</svg>
