<svg width="32" height="32" viewBox="0 0 32 32" fill="none" xmlns="http://www.w3.org/2000/svg">
<path d="M20 22.0013V25.3346C20 26.5771 20 27.1984 19.797 27.6885C19.5264 28.3419 19.0072 28.861 18.3538 29.1316C17.8638 29.3346 17.2425 29.3346 16 29.3346C14.7575 29.3346 14.1362 29.3346 13.6462 29.1316C12.9928 28.861 12.4736 28.3419 12.203 27.6885C12 27.1984 12 26.5771 12 25.3346V22.0013M20 22.0013C23.5318 20.4582 26 16.7686 26 12.668C26 7.14512 21.5228 2.66797 16 2.66797C10.4772 2.66797 6 7.14512 6 12.668C6 16.7686 8.46819 20.4582 12 22.0013M20 22.0013H12" stroke="#232A95" stroke-width="2" stroke-linecap="round" stroke-linejoin="round"/>
</svg>
