<svg width="32" height="32" viewBox="0 0 32 32" fill="none" xmlns="http://www.w3.org/2000/svg">
<path d="M10.668 18.668C10.668 18.668 12.668 21.3346 16.0013 21.3346C19.3346 21.3346 21.3346 18.668 21.3346 18.668M20.0013 12.0013H20.0146M12.0013 12.0013H12.0146M29.3346 16.0013C29.3346 23.3651 23.3651 29.3346 16.0013 29.3346C8.6375 29.3346 2.66797 23.3651 2.66797 16.0013C2.66797 8.6375 8.6375 2.66797 16.0013 2.66797C23.3651 2.66797 29.3346 8.6375 29.3346 16.0013ZM20.668 12.0013C20.668 12.3695 20.3695 12.668 20.0013 12.668C19.6331 12.668 19.3346 12.3695 19.3346 12.0013C19.3346 11.6331 19.6331 11.3346 20.0013 11.3346C20.3695 11.3346 20.668 11.6331 20.668 12.0013ZM12.668 12.0013C12.668 12.3695 12.3695 12.668 12.0013 12.668C11.6331 12.668 11.3346 12.3695 11.3346 12.0013C11.3346 11.6331 11.6331 11.3346 12.0013 11.3346C12.3695 11.3346 12.668 11.6331 12.668 12.0013Z" stroke="#232A95" stroke-width="2" stroke-linecap="round" stroke-linejoin="round"/>
</svg>
