<svg width="32" height="32" viewBox="0 0 32 32" fill="none" xmlns="http://www.w3.org/2000/svg">
<path d="M2.66797 16.0013H29.3346M2.66797 16.0013C2.66797 23.3651 8.6375 29.3346 16.0013 29.3346M2.66797 16.0013C2.66797 8.6375 8.6375 2.66797 16.0013 2.66797M29.3346 16.0013C29.3346 23.3651 23.3651 29.3346 16.0013 29.3346M29.3346 16.0013C29.3346 8.6375 23.3651 2.66797 16.0013 2.66797M16.0013 2.66797C19.3363 6.31911 21.2316 11.0573 21.3346 16.0013C21.2316 20.9453 19.3363 25.6835 16.0013 29.3346M16.0013 2.66797C12.6663 6.31911 10.771 11.0573 10.668 16.0013C10.771 20.9453 12.6663 25.6835 16.0013 29.3346" stroke="#232A95" stroke-width="2" stroke-linecap="round" stroke-linejoin="round"/>
</svg>
