<svg width="32" height="32" viewBox="0 0 32 32" fill="none" xmlns="http://www.w3.org/2000/svg">
<path d="M8.66797 17.3346L9.71391 19.4265C10.0679 20.1345 10.2449 20.4885 10.4813 20.7952C10.6912 21.0674 10.9352 21.3114 11.2074 21.5213C11.5141 21.7577 11.8681 21.9347 12.5761 22.2887L14.668 23.3346L12.5761 24.3806C11.8681 24.7346 11.5141 24.9116 11.2074 25.148C10.9352 25.3578 10.6912 25.6018 10.4813 25.874C10.2449 26.1808 10.0679 26.5348 9.71391 27.2427L8.66797 29.3346L7.62202 27.2427C7.26804 26.5348 7.09105 26.1808 6.85459 25.874C6.64478 25.6018 6.40076 25.3578 6.12856 25.148C5.82181 24.9116 5.46783 24.7346 4.75986 24.3806L2.66797 23.3346L4.75986 22.2887C5.46783 21.9347 5.82181 21.7577 6.12856 21.5213C6.40076 21.3114 6.64478 21.0674 6.85459 20.7952C7.09105 20.4885 7.26804 20.1345 7.62202 19.4265L8.66797 17.3346Z" stroke="#232A95" stroke-width="2" stroke-linecap="round" stroke-linejoin="round"/>
<path d="M20.0013 2.66797L21.5728 6.75386C21.9488 7.7315 22.1368 8.22032 22.4292 8.63149C22.6883 8.99591 23.0067 9.3143 23.3711 9.57342C23.7823 9.86578 24.2711 10.0538 25.2487 10.4298L29.3346 12.0013L25.2487 13.5728C24.2711 13.9488 23.7823 14.1368 23.3711 14.4292C23.0067 14.6883 22.6883 15.0067 22.4292 15.3711C22.1368 15.7823 21.9488 16.2711 21.5728 17.2487L20.0013 21.3346L18.4298 17.2487C18.0538 16.2711 17.8658 15.7823 17.5734 15.3711C17.3143 15.0067 16.9959 14.6883 16.6315 14.4292C16.2203 14.1368 15.7315 13.9488 14.7539 13.5728L10.668 12.0013L14.7539 10.4298C15.7315 10.0538 16.2203 9.86578 16.6315 9.57342C16.9959 9.3143 17.3143 8.99591 17.5734 8.63149C17.8658 8.22032 18.0538 7.7315 18.4298 6.75386L20.0013 2.66797Z" stroke="#232A95" stroke-width="2" stroke-linecap="round" stroke-linejoin="round"/>
</svg>
