<svg width="32" height="32" viewBox="0 0 32 32" fill="none" xmlns="http://www.w3.org/2000/svg">
<path d="M21.332 5.33464C22.572 5.33464 23.192 5.33464 23.7006 5.47093C25.081 5.8408 26.1592 6.91899 26.5291 8.29936C26.6654 8.80803 26.6654 9.42801 26.6654 10.668V22.9346C26.6654 25.1748 26.6654 26.2949 26.2294 27.1506C25.8459 27.9032 25.234 28.5152 24.4813 28.8987C23.6257 29.3346 22.5056 29.3346 20.2654 29.3346H11.732C9.49182 29.3346 8.37172 29.3346 7.51607 28.8987C6.76342 28.5152 6.1515 27.9032 5.76801 27.1506C5.33203 26.2949 5.33203 25.1748 5.33203 22.9346V10.668C5.33203 9.42801 5.33203 8.80803 5.46833 8.29936C5.8382 6.91899 6.91639 5.8408 8.29676 5.47093C8.80542 5.33464 9.4254 5.33464 10.6654 5.33464M12.7987 8.0013H19.1987C19.9454 8.0013 20.3188 8.0013 20.604 7.85598C20.8549 7.72815 21.0589 7.52417 21.1867 7.27329C21.332 6.98807 21.332 6.61471 21.332 5.86797V4.8013C21.332 4.05457 21.332 3.6812 21.1867 3.39598C21.0589 3.1451 20.8549 2.94112 20.604 2.81329C20.3188 2.66797 19.9454 2.66797 19.1987 2.66797H12.7987C12.052 2.66797 11.6786 2.66797 11.3934 2.81329C11.1425 2.94112 10.9385 3.1451 10.8107 3.39598C10.6654 3.6812 10.6654 4.05457 10.6654 4.8013V5.86797C10.6654 6.61471 10.6654 6.98807 10.8107 7.27329C10.9385 7.52417 11.1425 7.72815 11.3934 7.85598C11.6786 8.0013 12.052 8.0013 12.7987 8.0013Z" stroke="#232A95" stroke-width="2" stroke-linecap="round" stroke-linejoin="round"/>
</svg>
