<svg width="32" height="32" viewBox="0 0 32 32" fill="none" xmlns="http://www.w3.org/2000/svg">
<path fill-rule="evenodd" clip-rule="evenodd" d="M12.3168 13.7671V11.5431C12.3168 11.1141 12.1288 10.7071 11.8008 10.4311C11.4728 10.1551 11.0398 10.0381 10.6178 10.1111C10.6018 10.1131 10.5858 10.1171 10.5698 10.1211C8.57884 10.6021 7.08984 12.3861 7.08984 14.5171C7.08984 16.9881 9.09584 18.9941 11.5668 18.9941C13.7028 18.9941 15.4898 17.4981 15.9358 15.4961C15.9388 15.4841 15.9408 15.4721 15.9438 15.4601C16.0148 15.0471 15.8998 14.6231 15.6298 14.3021C15.3638 13.9861 14.9728 13.8011 14.5598 13.7961C13.9128 13.7681 12.9718 13.7671 12.3168 13.7671ZM10.8168 11.6061V13.8151C10.8168 14.2001 10.9698 14.5691 11.2418 14.8421C11.5138 15.1141 11.8828 15.2671 12.2678 15.2671C12.8858 15.2671 13.7908 15.2661 14.4418 15.2921C14.1008 16.5611 12.9428 17.4941 11.5668 17.4941C9.92384 17.4941 8.58984 16.1601 8.58984 14.5171C8.58984 13.1291 9.53784 11.9641 10.8168 11.6061Z" fill="#232A95"/>
<path fill-rule="evenodd" clip-rule="evenodd" d="M19.082 11.7266H24.161C24.575 11.7266 24.911 11.3906 24.911 10.9766C24.911 10.5626 24.575 10.2266 24.161 10.2266H19.082C18.668 10.2266 18.332 10.5626 18.332 10.9766C18.332 11.3906 18.668 11.7266 19.082 11.7266Z" fill="#232A95"/>
<path fill-rule="evenodd" clip-rule="evenodd" d="M19.082 15.2695H24.161C24.575 15.2695 24.911 14.9335 24.911 14.5195C24.911 14.1055 24.575 13.7695 24.161 13.7695H19.082C18.668 13.7695 18.332 14.1055 18.332 14.5195C18.332 14.9335 18.668 15.2695 19.082 15.2695Z" fill="#232A95"/>
<path fill-rule="evenodd" clip-rule="evenodd" d="M19.082 18.8086H24.161C24.575 18.8086 24.911 18.4726 24.911 18.0586C24.911 17.6446 24.575 17.3086 24.161 17.3086H19.082C18.668 17.3086 18.332 17.6446 18.332 18.0586C18.332 18.4726 18.668 18.8086 19.082 18.8086Z" fill="#232A95"/>
<path fill-rule="evenodd" clip-rule="evenodd" d="M30.4632 4.324C30.4632 2.626 29.0872 1.25 27.3892 1.25H4.60916C2.91116 1.25 1.53516 2.626 1.53516 4.324V4.326C1.53516 6.023 2.91116 7.4 4.60916 7.4H27.3892C29.0872 7.4 30.4632 6.023 30.4632 4.326V4.324ZM28.9632 4.324V4.326C28.9632 5.195 28.2592 5.9 27.3892 5.9H4.60916C3.73916 5.9 3.03516 5.195 3.03516 4.326V4.324C3.03516 3.455 3.73916 2.75 4.60916 2.75H27.3892C28.2592 2.75 28.9632 3.455 28.9632 4.324Z" fill="#232A95"/>
<path fill-rule="evenodd" clip-rule="evenodd" d="M28.8073 6.55118C28.8073 6.31418 28.6953 6.09118 28.5053 5.94918C28.3153 5.80818 28.0703 5.76418 27.8433 5.83218C27.7003 5.87518 27.5483 5.89818 27.3913 5.89818H4.61131C4.45431 5.89818 4.30231 5.87518 4.15931 5.83218C3.93231 5.76418 3.68731 5.80818 3.49731 5.94918C3.30731 6.09118 3.19531 6.31418 3.19531 6.55118V20.4492C3.19531 21.9852 4.44031 23.2312 5.97631 23.2312H26.0263C27.5623 23.2312 28.8073 21.9852 28.8073 20.4492V6.55118ZM4.69531 7.39818H27.3073V20.4492C27.3073 21.1572 26.7343 21.7312 26.0263 21.7312H5.97631C5.26831 21.7312 4.69531 21.1572 4.69531 20.4492V7.39818Z" fill="#232A95"/>
<path fill-rule="evenodd" clip-rule="evenodd" d="M16.3599 21.7344C16.0919 21.7344 15.8439 21.8774 15.7099 22.1094C15.5759 22.3414 15.5759 22.6274 15.7099 22.8594L19.5619 29.5304C20.2599 30.7394 21.8059 31.1534 23.0149 30.4554C24.2239 29.7574 24.6379 28.2114 23.9399 27.0024L21.1149 22.1094C20.9809 21.8774 20.7329 21.7344 20.4649 21.7344H16.3599ZM17.6589 23.2344H20.0319L22.6409 27.7524C22.9249 28.2444 22.7559 28.8724 22.2649 29.1564C21.7729 29.4404 21.1449 29.2724 20.8609 28.7804L17.6589 23.2344Z" fill="#232A95"/>
<path fill-rule="evenodd" clip-rule="evenodd" d="M11.5337 21.7344C11.2657 21.7344 11.0177 21.8774 10.8837 22.1094L8.04175 27.0324C7.35275 28.2254 7.76175 29.7494 8.95375 30.4384L8.95575 30.4394C10.1807 31.1464 11.7457 30.7264 12.4527 29.5024L16.2887 22.8594C16.4227 22.6274 16.4227 22.3414 16.2887 22.1094C16.1547 21.8774 15.9067 21.7344 15.6387 21.7344H11.5337ZM11.9667 23.2344H14.3397L11.1537 28.7524C10.8617 29.2594 10.2127 29.4334 9.70575 29.1404L9.70375 29.1394C9.22875 28.8654 9.06575 28.2574 9.34075 27.7824L11.9667 23.2344Z" fill="#232A95"/>
</svg>
