<svg width="32" height="32" viewBox="0 0 32 32" fill="none" xmlns="http://www.w3.org/2000/svg">
<path d="M18.668 12.0133L18.6813 11.9985" stroke="#232A95" stroke-width="2" stroke-linecap="round" stroke-linejoin="round"/>
<path d="M10.668 10.6813L10.6813 10.6665" stroke="#232A95" stroke-width="2" stroke-linecap="round" stroke-linejoin="round"/>
<path d="M10.668 18.6813L10.6813 18.6665" stroke="#232A95" stroke-width="2" stroke-linecap="round" stroke-linejoin="round"/>
<path d="M8.0013 25.3346L2.90423 3.67207C2.79883 3.22415 3.21612 2.82919 3.65758 2.95903L25.3346 9.33464" stroke="#232A95" stroke-width="2"/>
<path d="M25.0703 10.0996C25.383 8.84957 26.6493 8.08985 27.8994 8.40234C29.1495 8.71487 29.9101 9.98133 29.5977 11.2314C28.7868 14.475 26.1317 18.5011 22.7334 21.8994C19.3016 25.3312 14.7644 28.4733 9.8584 29.6055C8.60283 29.8952 7.34946 29.1129 7.05957 27.8574C6.76983 26.6019 7.55311 25.3485 8.80859 25.0586C12.5692 24.1908 16.3656 21.6666 19.4336 18.5986C22.5352 15.497 24.5479 12.1894 25.0703 10.0996Z" stroke="#232A95" stroke-width="2" stroke-linecap="round"/>
</svg>
