<svg width="32" height="32" viewBox="0 0 32 32" fill="none" xmlns="http://www.w3.org/2000/svg">
<path d="M29.3346 28V25.3333C29.3346 22.8482 27.6349 20.7601 25.3346 20.168M20.668 4.38768C22.6225 5.17886 24.0013 7.09508 24.0013 9.33333C24.0013 11.5716 22.6225 13.4878 20.668 14.279M22.668 28C22.668 25.515 22.668 24.2725 22.262 23.2924C21.7207 21.9855 20.6824 20.9473 19.3756 20.406C18.3955 20 17.153 20 14.668 20H10.668C8.18295 20 6.94044 20 5.96032 20.406C4.65351 20.9473 3.61525 21.9855 3.07394 23.2924C2.66797 24.2725 2.66797 25.515 2.66797 28M18.0013 9.33333C18.0013 12.2789 15.6135 14.6667 12.668 14.6667C9.72245 14.6667 7.33464 12.2789 7.33464 9.33333C7.33464 6.38781 9.72245 4 12.668 4C15.6135 4 18.0013 6.38781 18.0013 9.33333Z" stroke="#232A95" stroke-width="2" stroke-linecap="round" stroke-linejoin="round"/>
</svg>
